<?xml version="1.0" encoding="UTF-8"?>
<svg id="Calque_2" data-name="Calque 2" xmlns="http://www.w3.org/2000/svg" xmlns:xlink="http://www.w3.org/1999/xlink" viewBox="0 0 145.82 84.11">
  <defs>
    <style>
      .cls-1 {
        fill: #ffae2a;
      }

      .cls-2, .cls-3 {
        fill: #fff;
      }

      .cls-4 {
        fill: #fff108;
      }

      .cls-5 {
        fill: #05b7ee;
      }

      .cls-6 {
        fill: #587f65;
      }

      .cls-3 {
        opacity: .81;
      }

      .cls-3, .cls-7 {
        isolation: isolate;
      }

      .cls-8 {
        fill: #f3cc9f;
      }

      .cls-8, .cls-9, .cls-10 {
        stroke: #000;
        stroke-miterlimit: 10;
      }

      .cls-8, .cls-10 {
        stroke-width: .25px;
      }

      .cls-7 {
        fill: #05a5e5;
        opacity: .68;
      }

      .cls-9 {
        fill: none;
        stroke-width: .5px;
      }

      .cls-10 {
        fill: url(#Dégradé_sans_nom);
      }
    </style>
    <radialGradient id="Dégradé_sans_nom" data-name="Dégradé sans nom" cx="-30.94" cy="90.32" fx="-30.94" fy="90.32" r="1" gradientTransform="translate(313.76 782.7) scale(8.53 -8.47)" gradientUnits="userSpaceOnUse">
      <stop offset="0" stop-color="#fbdf0b"/>
      <stop offset=".04" stop-color="#d0ff00"/>
      <stop offset="1" stop-color="#eb9335"/>
    </radialGradient>
  </defs>
  <g id="Calque_1-2" data-name="Calque 1">
    <g>
      <path class="cls-10" d="m50.01,25.88c4.71,0,8.53-3.79,8.53-8.47s-3.82-8.47-8.53-8.47-8.53,3.79-8.53,8.47,3.82,8.47,8.53,8.47Z"/>
      <path class="cls-2" d="m16.46,72.38v4.8h5.6v-4.8h1.56v11.48h-1.56v-5.39h-5.6v5.39h-1.56v-11.48h1.56Z"/>
      <path class="cls-2" d="m28.02,83.86v-11.48h1.64l3.71,5.81c.77,1.2,1.46,2.45,2.07,3.73h0c-.14-1.55-.17-2.94-.17-4.65v-4.8h1.4v11.48h-1.56l-3.66-5.82c-.8-1.24-1.52-2.52-2.17-3.84h0c.08,1.46.12,2.83.12,4.74v4.91l-1.39-.08Z"/>
      <path class="cls-2" d="m41.19,72.52c.95-.16,1.91-.23,2.87-.23,1.19-.12,2.39.22,3.34.94.3.27.54.61.7.98.16.37.23.78.22,1.18,0,.66-.22,1.3-.61,1.83-.39.53-.94.92-1.57,1.12h0c.46.21.86.53,1.16.94.3.41.48.89.54,1.39.2,1.06.5,2.09.89,3.1h-1.56c-.34-.89-.59-1.81-.76-2.74-.34-1.55-.97-2.18-2.32-2.23h-1.43v4.97h-1.56l.11-11.25Zm1.56,5.24h1.56c1.56,0,2.6-.87,2.6-2.18s-1.15-2.12-2.71-2.14c-.49-.02-.99.03-1.47.14l.02,4.18Z"/>
      <path class="cls-2" d="m57.82,72.51c.95-.15,1.91-.22,2.87-.22,1.16-.09,2.32.25,3.24.96.33.3.6.67.77,1.09.17.41.26.86.24,1.31.02.45-.04.89-.2,1.31-.15.42-.39.81-.69,1.14-.47.44-1.03.77-1.64.99-.61.22-1.25.31-1.9.28-.4.02-.81-.02-1.2-.11v4.65h-1.56l.06-11.4Zm1.56,5.55c.4.09.82.13,1.23.12,1.81,0,2.9-.87,2.9-2.46s-1.08-2.25-2.73-2.25c-.47-.02-.94.02-1.4.12v4.46Z"/>
      <path class="cls-2" d="m70.32,72.38v11.48h-1.56v-11.48h1.56Z"/>
      <path class="cls-2" d="m74.61,82.13c.81.48,1.74.73,2.68.74,1.56,0,2.42-.81,2.42-1.97s-.62-1.69-2.18-2.28c-1.89-.67-3.12-1.64-3.12-3.25.02-.45.14-.9.35-1.3.2-.41.49-.77.84-1.06.35-.29.76-.51,1.2-.63.44-.13.9-.16,1.35-.1.89-.03,1.77.16,2.56.56l-.41,1.21c-.68-.36-1.43-.54-2.2-.54-1.56,0-2.18.93-2.18,1.72,0,1.07.7,1.55,2.29,2.21,1.96.74,2.96,1.69,2.96,3.38s-1.32,3.3-4.05,3.3c-1.03.01-2.04-.24-2.95-.73l.44-1.25Z"/>
      <path class="cls-2" d="m93.24,83.49c-.99.4-2.05.58-3.12.54-.77.05-1.55-.07-2.27-.35-.72-.28-1.38-.71-1.92-1.26-.54-.55-.96-1.21-1.22-1.94-.26-.73-.36-1.5-.3-2.27-.05-.8.08-1.6.36-2.35s.73-1.43,1.3-2c.57-.57,1.25-1.01,2.01-1.3.75-.29,1.56-.41,2.37-.37.94-.05,1.88.13,2.74.51l-.36,1.21c-.73-.33-1.53-.5-2.34-.48-.62-.04-1.25.06-1.83.29-.58.23-1.1.58-1.53,1.03-.43.45-.75.99-.95,1.58-.2.59-.26,1.21-.19,1.83-.07.61,0,1.22.19,1.8.19.58.51,1.11.94,1.56.42.44.94.79,1.51,1.01.57.22,1.19.32,1.8.28.84.01,1.66-.15,2.43-.48l.37,1.15Z"/>
      <path class="cls-2" d="m98.47,72.38v11.48h-1.48v-11.48h1.48Z"/>
      <path class="cls-2" d="m102.96,83.86v-11.48h1.56l3.71,5.81c.77,1.2,1.46,2.45,2.07,3.73h0c-.14-1.55-.17-2.94-.17-4.65v-4.8h1.4v11.48h-1.56l-3.43-5.92c-.8-1.24-1.52-2.52-2.17-3.84h0c0,1.46.12,2.83.12,4.74v4.91l-1.54.02Z"/>
      <path class="cls-2" d="m122.13,78.47h-4.51v4.15h5v1.24h-6.5v-11.48h6.23v1.24h-4.68v3.62h4.44v1.22Z"/>
      <path class="cls-2" d="m126.25,82.13c.81.48,1.74.73,2.68.74,1.56,0,2.42-.81,2.42-1.97s-.62-1.69-2.18-2.28c-1.89-.67-3.12-1.64-3.12-3.25.02-.45.14-.9.35-1.3.21-.41.49-.77.84-1.06.35-.29.76-.51,1.2-.63.44-.13.9-.16,1.35-.1.89-.03,1.76.16,2.56.56l-.4,1.21c-.68-.36-1.43-.54-2.2-.54-1.56,0-2.18.93-2.18,1.72,0,1.07.7,1.55,2.31,2.21,1.95.74,2.95,1.69,2.95,3.38s-1.32,3.3-4.05,3.3c-1.03,0-2.04-.24-2.95-.73l.44-1.25Z"/>
      <path class="cls-6" d="m36.77,31.01v-14.48s5.75,6.2,5.86,9c2.87-.88-2.1-9.88-2.1-9.88,0,0,4.3.56,5.19,3.73.89,3.18,2.1-.77,1-2.42-1.22-1.59-2.83-2.84-4.68-3.62-.76-.11-.47-1.55,1.79-1.39,1.73-.11,3.45.38,4.86,1.39,1.15.9,3.12,2.2,1.85.11-1.26-2.09-2.71-4.38-5.91-4.49-1.63-.1-3.27-.05-4.89.14-1.75.12-.58-2.74.64-2.97,2.39-.11,4.78.15,7.09.77,1.36.54-.55-6.4-5.44-6.86-4.89-.46-6.84,4.38-8.17,5.37-1.32.99-1.18-2.93-4.01-3.92-1.19-.35-2.44-.39-3.65-.12-1.21.27-2.32.84-3.24,1.66-1.22,1.08.84.31,3.34.65,2.93.4,2.65,1.04,1.84,2.04-.44.54-5.3.56-6.73,2.2-.81.94,3.12-.96,5.74,1.02.79.59-1.71.51-3.12.74-2.76.46-3.52,4.38-3.52,4.38,0,0,3.54-3.19,6.23-2.42,2.7.77,1,1.43,1,1.43,0,0-3.87.22-4.41,1.55-.64,1.1-.95,2.36-.89,3.62.11,1.64,1.11-1.1,2.21-1.32,1.11-.22,5.08-1.75,4.3-.76-.77,1.23-1.22,2.62-1.32,4.06.11.43,1.65-3.41,3.12-3.41.93,0,1.86.08,2.77.22l-.23,13.94,3.48.02Z"/>
      <path class="cls-6" d="m17.45,40.46v-14.5s5.74,6.2,5.84,9c2.88-.87-2.09-9.87-2.09-9.87,0,0,4.3.54,5.19,3.73.89,3.19,2.1-.77,1-2.42-1.24-1.6-2.88-2.85-4.75-3.62-.78-.11-.47-1.55,1.79-1.41,1.74-.1,3.45.4,4.86,1.41,1.14.88,3.12,2.18,1.85.11-1.26-2.08-2.71-4.4-5.92-4.51-1.63-.1-3.26-.05-4.88.15-1.75.12-.58-2.76.64-2.97,2.39-.11,4.78.14,7.09.76,1.43.56-.47-6.38-5.44-6.83-4.97-.45-6.84,4.48-8.17,5.39-1.32.91-1.06-2.97-3.93-4.01-1.19-.34-2.44-.38-3.65-.11-1.21.27-2.32.84-3.24,1.66-1.22,1.1.84.31,3.34.65,2.93.4,2.65,1.05,1.84,2.06-.44.54-5.3.54-6.73,2.2-.83.93,3.04-.98,5.72,1.01.81.6-1.7.51-3.12.74-2.73.54-3.49,4.46-3.49,4.46,0,0,3.54-3.1,6.23-2.42,2.7.68,1,1.44,1,1.44,0,0-3.87.22-4.43,1.55-.63,1.1-.94,2.36-.87,3.62.11,1.64,1.11-1.1,2.2-1.32,1.09-.22,5.08-1.77,4.32-.77-.76,1.23-1.22,2.62-1.32,4.06.11.45,1.65-3.39,3.12-3.39.92,0,1.85.08,2.76.22l-.22,13.93h3.46Z"/>
      <path class="cls-4" d="m114.55,31.01h-13.56s-.09,0-.14-.03c-.04-.02-.08-.04-.12-.08s-.06-.07-.08-.12c-.02-.04-.03-.09-.03-.14v-15.91c-.1-1.28-.68-2.47-1.64-3.33-.95-.86-2.2-1.33-3.49-1.31-1.07-.04-2.13.23-3.04.78-.91.55-1.65,1.36-2.1,2.32-.32.68-.49,1.42-.48,2.17v15.69s0,.09-.02.13c-.02.04-.04.08-.07.11-.03.03-.07.06-.11.07-.04.02-.08.03-.13.03h-18.1c-.09,0-.18-.04-.24-.1s-.1-.15-.1-.24l.11-16.05c.02-1.1-.33-2.17-.99-3.05-.67-.87-1.61-1.5-2.68-1.77-.51-.11-1.03-.17-1.56-.17-.74-.07-1.48.01-2.18.25-.7.24-1.34.63-1.87,1.14-.65.66-1.06,1.5-1.18,2.42v44.27c.12,1.49.82,2.87,1.94,3.86,1.12.99,2.58,1.52,4.08,1.48.88-.15,1.71-.5,2.42-1.04.71-.54,1.27-1.25,1.64-2.05.45-1.2.62-2.48.48-3.75v-14.1c0-.07.02-.14.06-.2.04-.06.1-.11.17-.13.07-.03.14-.03.21-.02.07.02.14.05.18.11l14.25,15.97s3.48,5.27,8.11,5.16c.79-.03,1.57-.22,2.29-.57.71-.35,1.34-.85,1.85-1.46,1.5-1.77,2.32-4.02,2.31-6.34v-15.71c0-.09.04-.18.1-.24.06-.06.15-.1.24-.1h13.58v-7.74l-.08-.22Zm-24.75,15.3c0,.06-.01.11-.04.16-.03.05-.07.09-.12.11-.05.02-.11.03-.16.03-.06,0-.11-.03-.15-.06l-7.25-6.66s-.08-.11-.1-.17c-.01-.07,0-.14.02-.2.03-.06.07-.12.13-.16.06-.04.12-.06.19-.06h7.15c.09,0,.18.04.24.1.06.06.1.15.1.24v6.68Z"/>
      <path class="cls-9" d="m100.63,30.65s0,.09.03.14c.02.04.05.08.08.12s.07.06.12.08c.04.02.09.03.14.03h13.56l.08.22v7.74h-13.58c-.09,0-.18.04-.24.1-.06.06-.1.15-.1.24m-.08-8.66v-15.91c-.1-1.28-.68-2.47-1.64-3.33-.95-.86-2.2-1.33-3.49-1.31-1.07-.04-2.13.23-3.04.78-.91.55-1.65,1.36-2.1,2.32-.32.68-.49,1.42-.48,2.17v15.69m10.76-.4l.08,8.66m-10.83-8.26s0,.09-.02.13c-.02.04-.04.08-.07.11-.03.03-.07.06-.11.07-.04.02-.08.03-.13.03h-18.1c-.09,0-.18-.04-.24-.1s-.1-.15-.1-.24l.11-16.05c.02-1.1-.33-2.17-.99-3.05-.67-.87-1.61-1.5-2.68-1.77-.51-.11-1.03-.17-1.56-.17-.74-.07-1.48.01-2.18.25-.7.24-1.34.63-1.87,1.14-.65.66-1.06,1.5-1.18,2.42v44.27c.12,1.49.82,2.87,1.94,3.86,1.12.99,2.58,1.52,4.08,1.48.88-.15,1.71-.5,2.42-1.04.71-.54,1.27-1.25,1.64-2.05.45-1.2.62-2.48.48-3.75v-14.1c0-.07.02-.14.06-.2.04-.06.1-.11.17-.13.07-.03.14-.03.21-.02.07.02.14.05.18.11l14.25,15.97s3.48,5.27,8.11,5.16c.79-.03,1.57-.22,2.29-.57.71-.35,1.34-.85,1.85-1.46,1.5-1.77,2.32-4.02,2.31-6.34v-15.71m-10.83-8.26l-.08,8.58m0,0c0-.09-.04-.18-.1-.24-.06-.06-.15-.1-.24-.1h-7.15c-.07,0-.14.02-.19.06-.06.04-.1.09-.13.16-.03.06-.03.13-.02.2.01.07.05.13.1.17l7.25,6.66s.1.06.15.06c.06,0,.11,0,.16-.03.05-.02.09-.06.12-.11.03-.05.04-.1.04-.16v-6.68Z"/>
      <path class="cls-1" d="m133.5,40.58c-.07-.1-.12-.21-.13-.33-.01-.12,0-.24.05-.35.05-.11.12-.21.22-.28.1-.07.21-.12.33-.13,4.15-.54,11.22-2.76,11.58-11.56.36-8.8-6.75-12.76-10.78-14.22-1.46-.52-3-.78-4.55-.79h-16.94c-1.73-.01-3.4.62-4.68,1.78-.63.6-1.13,1.32-1.46,2.12-.33.8-.48,1.66-.45,2.53.06,1.46.55,2.87,1.4,4.06l5.07,7.37c.04.06.07.13.07.21,0,.07-.01.15-.04.21-.03.07-.08.12-.15.16-.06.04-.13.06-.21.07h-3.58c-3.21,0-3.12,3.45-3.12,3.45v21.84c-.02,1.04.24,2.06.76,2.96.52.9,1.27,1.64,2.17,2.15.76.43,1.61.66,2.48.68,1.02-.03,2.01-.38,2.82-1.01.72-.54,1.31-1.24,1.71-2.05.4-.81.6-1.7.59-2.6l.09-16.91c0-.1.04-.2.11-.27.07-.07.17-.11.28-.11h1.56c.14,0,.27.03.39.1.12.06.22.15.3.26,6.13,8.89,12.47,18.18,13.76,19.87,2.48,3.41,7.19,2.63,9.23,1.32,1.15-.74,1.56-2.68,1.64-4.21.08-1.3-.3-2.59-1.09-3.64l-9.43-12.69Zm-13.76-17.53c1.96,0,8.9-.09,11.92,0,.14,0,.28.03.4.11,2.56,1.55,4.27,6.32.83,8.69-.26.18-.57.27-.89.26h-5.32c-.24,0-.47-.06-.68-.16-.21-.1-.39-.26-.54-.44l-5.94-8.01s-.06-.09-.07-.14c-.01-.05,0-.11.02-.16.02-.05.06-.09.1-.12.05-.03.1-.04.15-.04Z"/>
      <path class="cls-9" d="m133.5,40.58c-.07-.1-.12-.21-.13-.33-.01-.12,0-.24.05-.35.05-.11.12-.21.22-.28.1-.07.21-.12.33-.13,4.15-.54,11.22-2.76,11.58-11.56.36-8.8-6.75-12.76-10.78-14.22-1.46-.52-3-.78-4.55-.79h-16.94c-1.73-.01-3.4.62-4.68,1.78-.63.6-1.13,1.32-1.46,2.12-.33.8-.48,1.66-.45,2.53.06,1.46.55,2.87,1.4,4.06l5.07,7.37m20.34,9.79l9.43,12.69c.79,1.05,1.17,2.34,1.09,3.64-.08,1.53-.48,3.47-1.64,4.21-2.04,1.32-6.75,2.09-9.23-1.32-1.29-1.69-7.64-10.98-13.76-19.87m14.11.65c-.11-.26-5.4-6.16-8.03-9.08m-12.31-.71c.04.06.07.13.07.21,0,.07-.01.15-.04.21-.03.07-.08.12-.15.16-.06.04-.13.06-.21.07h-3.58c-3.21,0-3.12,3.45-3.12,3.45v21.84c-.02,1.04.24,2.06.76,2.96.52.9,1.27,1.64,2.17,2.15.76.43,1.61.66,2.48.68,1.02-.03,2.01-.38,2.82-1.01.72-.54,1.31-1.24,1.71-2.05.4-.81.6-1.7.59-2.6l.09-16.91c0-.1.04-.2.11-.27.07-.07.17-.11.28-.11h1.56c.14,0,.27.03.39.1.12.06.22.15.3.26m-6.24-9.14l6.24,9.14m6.08-8.43c.14.19.33.34.54.44.21.1.44.16.68.16h5.32c.32,0,.63-.09.89-.26,3.44-2.37,1.73-7.14-.83-8.69-.12-.07-.26-.11-.4-.11-3.02-.09-9.96,0-11.92,0-.05,0-.11.01-.15.04-.05.03-.08.07-.1.12-.02.05-.03.1-.02.16,0,.05.03.1.07.14l5.94,8.01Z"/>
      <path class="cls-8" d="m48.57,63l12.31-5.37c.72-.31,1.36-.77,1.87-1.36.51-.58.89-1.27,1.11-2.02l5.56-20.37c.21-.7.26-1.44.15-2.17-.11-.73-.38-1.42-.79-2.03-.23-.37-.56-.68-.94-.9-.38-.22-.82-.34-1.26-.35h-24.55c-.58,0-1.15.09-1.7.28L3.08,40.66c-.91.38-1.68,1.03-2.21,1.86-.53.83-.78,1.8-.74,2.78v.11c.1,1.31.6,2.56,1.43,3.58.84,1.02,1.97,1.76,3.24,2.12l38.8,12.16c1.64.5,3.4.4,4.97-.28h0Z"/>
      <path class="cls-5" d="m65.56,34.68l-6.13,14.99c-.15.37-.36.71-.62,1.01-1.39,1.55-6.23,6.57-12.3,6.1-6.23-.48-30.69-8.1-36.68-9.74-.59-.15-1.12-.44-1.56-.85-.44-.41-.77-.93-.95-1.5-.08-.23-.12-.47-.1-.71.02-.24.08-.48.19-.69.11-.21.27-.4.45-.56.19-.15.41-.27.64-.33,2.49-1.05,24.67-8.83,30.38-10.84.88-.3,1.81-.44,2.74-.4l22.23.94c.3.01.6.09.87.24.27.15.49.36.66.61.17.25.27.54.3.84.03.3-.01.61-.13.89h0Z"/>
      <path class="cls-7" d="m65.56,34.22c-.62,1.32-14.53-.15-20.93.68-6.41.84-21.82,9.29-34.29,12.3-.71-.08-1.37-.36-1.93-.8-.55-.44-.97-1.04-1.19-1.7-.08-.23-.12-.47-.1-.71.02-.24.08-.48.19-.69.11-.21.27-.4.45-.56.19-.15.41-.27.64-.33,2.49-1.05,24.67-8.83,30.38-10.84.88-.3,1.81-.44,2.74-.4l22.16.46c.32-.03.65.02.95.16.3.13.55.34.74.61.19.26.31.57.34.9.03.32-.02.65-.16.94Z"/>
      <path class="cls-3" d="m53.5,36.45c.55.19,1.17.77.79,1.21-.13.14-.31.22-.5.25-.67.15-1.34.24-2.03.26.39.42.84.78,1.32,1.08-.56.3-1.14.55-1.73.77.48,0,.75.59.83,1.05,0,.48.11.95.34,1.38.08.12.2.22.23.36s-.26.56-.53.77c-.5.54-.84,1.21-.97,1.93-.13.72-.06,1.46.22,2.14.22.79.45,1.84-.25,2.31-.29.16-.62.22-.95.19-.65,0-1.3-.14-1.89-.4-.59-.27-1.12-.66-1.55-1.14-.43-.5-.7-1.11-.78-1.76-.08-.65.03-1.31.33-1.9l-2.46-1.3c.66-.53,1.46-.86,2.31-.96-.18-.43-.45-.81-.79-1.13-.34-.32-.74-.57-1.18-.72-.22-.04-.43-.14-.59-.29-.16-.15-.17-.48,0-.57.13-.05.27-.05.41,0,.89.22,2.04-.25,2.12-1.15-.75-.37-1.64-1.05-1.32-1.83,1.08-2.63,6.89-1.19,8.62-.54Z"/>
    </g>
  </g>
</svg>