<?xml version="1.0" encoding="UTF-8"?>
<svg id="Calque_2" data-name="Calque 2" xmlns="http://www.w3.org/2000/svg" viewBox="0 0 748.44 195.92">
  <defs>
    <style>
      .cls-1 {
        fill: #f09928;
      }

      .cls-2 {
        fill: #09254f;
      }
    </style>
  </defs>
  <g id="Calque_1-2" data-name="Calque 1">
    <path class="cls-1" d="m570.09,61.55c0-1.99-.68-3.66-2.04-5.01-1.36-1.36-3.03-2.04-5.01-2.04s-3.68.68-5.09,2.04c-1.41,1.36-2.12,3.03-2.12,5.01v41.2c-.04,11.81-9.65,21.41-21.47,21.41s-21.45-9.61-21.47-21.43v-41.17c0-1.99-.68-3.66-2.04-5.01-1.36-1.36-3.03-2.04-5.01-2.04s-3.68.68-5.09,2.04c-1.41,1.36-2.12,3.03-2.12,5.01v41.2c-.04,11.81-9.65,21.41-21.47,21.41s-21.45-9.61-21.47-21.43v-41.17c0-1.99-.68-3.66-2.04-5.01-1.36-1.36-3.03-2.04-5.01-2.04s-3.68.68-5.09,2.04c-1.41,1.36-2.12,3.03-2.12,5.01v42.27h.03c.61,19.17,16.38,34.59,35.7,34.59,11.69,0,22.08-5.64,28.6-14.34,6.52,8.7,16.91,14.34,28.6,14.34,19.32,0,35.09-15.41,35.7-34.59h.03v-42.27Z"/>
    <path class="cls-1" d="m596.23,127.55c-7.15-7.25-10.72-17.46-10.72-30.61,0-7.41,1.35-14.25,4.07-20.51,2.71-6.26,6.89-11.32,12.52-15.19,5.64-3.86,12.58-5.79,20.82-5.79,7.72,0,14.4,1.8,20.04,5.4,5.64,3.6,9.91,8.4,12.84,14.4,2.92,6,4.38,12.55,4.38,19.65,0,1.98-.65,3.65-1.96,5.01-1.31,1.36-3.05,2.04-5.24,2.04h-53.07c.83,7.31,3.55,12.99,8.14,17.06,4.59,4.07,11.01,6.11,19.26,6.11,4.38,0,8.22-.42,11.51-1.25,3.29-.83,6.5-2.04,9.63-3.6.83-.42,1.77-.63,2.82-.63,1.67,0,3.13.57,4.38,1.72,1.25,1.15,1.88,2.61,1.88,4.38,0,2.3-1.36,4.23-4.07,5.79-4.07,2.3-8.09,4.02-12.06,5.17-3.97,1.15-9.08,1.72-15.34,1.72-12.74,0-22.68-3.62-29.82-10.88Zm49.86-37.18c-.31-5.11-1.64-9.39-3.99-12.84-2.35-3.44-5.24-5.97-8.69-7.59-3.44-1.62-6.94-2.43-10.49-2.43s-7.05.81-10.49,2.43c-3.44,1.62-6.32,4.15-8.61,7.59-2.3,3.44-3.6,7.73-3.91,12.84h46.18Z"/>
    <path class="cls-1" d="m748.44,97.51c0-22.55-18.42-40.86-40.96-40.92h0s-18.3,0-18.3,0V18.33c0-2.06-.67-3.76-2.01-5.1-1.34-1.34-3.04-2.01-5.1-2.01s-3.6.69-4.94,2.08c-1.34,1.39-2.01,3.06-2.01,5.02v113.15c0,1.96.67,3.6,2.01,4.94,1.34,1.34,2.99,2.01,4.95,2.01.03,0,2.97,0,7.1,0l18.3-.13h0c22.54-.06,40.96-18.24,40.96-40.79Zm-41.07,27.27h-18.19v-54.67h18.19c15.04,0,27.38,12.36,27.38,27.4s-12.34,27.27-27.38,27.27Z"/>
    <path class="cls-2" d="m307.71,91.84c0-20.19-16.43-36.62-36.62-36.62s-36.62,16.43-36.62,36.62h.13v40.23c0,2.03.69,3.74,2.08,5.12,1.39,1.39,3.09,2.08,5.12,2.08s3.76-.69,5.2-2.08c1.44-1.39,2.16-3.09,2.16-5.12v-40.23h.13c0-12.02,9.78-21.8,21.8-21.8s21.8,9.78,21.8,21.8h.13v40.23c0,2.03.69,3.74,2.08,5.12,1.39,1.39,3.09,2.08,5.12,2.08s3.76-.69,5.2-2.08c1.44-1.39,2.16-3.09,2.16-5.12v-40.23h.13Z"/>
    <path class="cls-2" d="m178.64,69.34c15.13,0,27.44,12.31,27.44,27.44s-12.31,27.44-27.44,27.44-27.44-12.31-27.44-27.44,12.31-27.44,27.44-27.44m0-14.82c-23.34,0-42.26,18.92-42.26,42.26s18.92,42.26,42.26,42.26,42.26-18.92,42.26-42.26-18.92-42.26-42.26-42.26h0Z"/>
    <path class="cls-2" d="m337.66,131.5V18.35c0-2.06-.67-3.76-2.01-5.09-1.34-1.34-3.04-2.01-5.1-2.01s-3.6.69-4.94,2.08c-1.34,1.39-2.01,3.06-2.01,5.02v113.15c0,1.96.67,3.6,2.01,4.94,1.34,1.34,2.99,2.01,4.95,2.01,0,0,.05,0,.14,0,3.84,0,6.96-3.11,6.96-6.95h0Z"/>
    <path class="cls-2" d="m424.1,57.28c-1.38-1.37-3.12-2.06-5.24-2.06,0,0,0,0-.01,0,0,0-.01,0-.02,0-2.03,0-3.76.69-5.2,2.08-1.44,1.39-2.16,3.09-2.16,5.12v40.23h-.13c0,12.02-9.78,21.8-21.8,21.8s-21.8-9.78-21.8-21.8h-.13v-40.23c0-2.03-.69-3.74-2.08-5.12-1.39-1.39-3.09-2.08-5.12-2.08s-3.76.69-5.2,2.08c-1.44,1.39-2.16,3.09-2.16,5.12v40.23h-.13c0,20.19,16.43,36.62,36.62,36.62,8.3,0,15.96-2.78,22.1-7.45-.03,1.88-.05,3.68-.08,7.97-.02,2.62.11,11.15.16,13.68v3.4c-.1,3.77-.58,7.49-2.22,11.2-2.58,5.85-7.74,10.39-13.89,12.17-1.74.51-3.54.79-5.35.85-.24,0-.33.12-.58.12-4.06,0-7.36,3.29-7.36,7.36s3.29,7.36,7.36,7.36c.24,0,.33,0,.57,0,9.75-.19,19.15-4.37,25.85-11.45,2.9-3.06,5.27-6.62,6.96-10.48,2.03-4.62,3.09-9.16,3.09-14.19,0-1.74,0-3.48,0-5.23V62.51c0-2.12-.69-3.86-2.06-5.24Z"/>
    <path class="cls-2" d="m58.18,95.53c2.54,0,4.59,2.06,4.59,4.59v10.9c0,13.98-3.47,27.57-10.41,40.76-6.14,11.67-12.19,20.56-18.17,26.68-.9.92-2.11,1.42-3.34,1.42-.61,0-1.22-.12-1.8-.37l-8.5-3.66c-2.72-1.17-3.65-4.58-1.88-6.95,4.06-5.41,8-12.01,11.84-19.81,4.13-8.4,6.56-16.64,7.27-24.71.24-2.69-1.88-5.01-4.58-5.01h-16.62c-2.54,0-4.59-2.06-4.59-4.59v-14.67c0-2.54,2.06-4.59,4.59-4.59h41.59m0-12H16.59c-9.15,0-16.59,7.44-16.59,16.59v14.67c0,9.15,7.44,16.59,16.59,16.59h7.85c-1.05,4.06-2.61,8.22-4.68,12.42-3.49,7.09-7.08,13.12-10.67,17.9-3.06,4.09-4.07,9.26-2.75,14.2,1.32,4.95,4.78,8.95,9.48,10.97l8.5,3.66c2.08.89,4.28,1.35,6.54,1.35,4.45,0,8.8-1.84,11.92-5.04,6.85-7.02,13.46-16.66,20.2-29.48,7.82-14.87,11.79-30.46,11.79-46.35v-10.9c0-9.15-7.44-16.59-16.59-16.59h0Z"/>
    <path class="cls-1" d="m38,12c13.06,0,23.65,10.59,23.65,23.65s-10.59,23.65-23.65,23.65-23.65-10.59-23.65-23.65,10.59-23.65,23.65-23.65m0-12C18.34,0,2.35,15.99,2.35,35.65s15.99,35.65,35.65,35.65,35.65-15.99,35.65-35.65S57.66,0,38,0h0Z"/>
  </g>
</svg>