<?xml version="1.0" encoding="UTF-8"?>
<svg id="Calque_2" data-name="Calque 2" xmlns="http://www.w3.org/2000/svg" viewBox="0 0 131.5 100">
  <defs>
    <style>
      .cls-1 {
        fill: #fff;
      }
    </style>
  </defs>
  <g id="Calque_1-2" data-name="Calque 1">
    <path class="cls-1" d="m125.2,12.5H6.3c-3.5,0-6.3-2.8-6.3-6.2h0C0,2.8,2.8,0,6.3,0h118.9c3.4,0,6.3,2.8,6.3,6.3h0c-.1,3.4-2.9,6.2-6.3,6.2Z"/>
    <path class="cls-1" d="m125.2,56.3H6.3c-3.5,0-6.3-2.9-6.3-6.3h0c0-3.4,2.8-6.3,6.3-6.3h118.9c3.4,0,6.3,2.8,6.3,6.3h0c-.1,3.4-2.9,6.3-6.3,6.3Z"/>
    <path class="cls-1" d="m125.2,100H6.3c-3.5,0-6.3-2.8-6.3-6.3h0c0-3.4,2.8-6.3,6.3-6.3h118.9c3.4,0,6.3,2.8,6.3,6.3h0c-.1,3.5-2.9,6.3-6.3,6.3Z"/>
  </g>
</svg>